<?xml version="1.0" encoding="utf-8"?>
<!-- Generator: Adobe Illustrator 15.1.0, SVG Export Plug-In . SVG Version: 6.00 Build 0)  -->
<!DOCTYPE svg PUBLIC "-//W3C//DTD SVG 1.1//EN" "http://www.w3.org/Graphics/SVG/1.1/DTD/svg11.dtd">
<svg version="1.1" id="Layer_1" xmlns="http://www.w3.org/2000/svg" xmlns:xlink="http://www.w3.org/1999/xlink" x="0px" y="0px"
	 width="22px" height="24px" viewBox="0 0 22 24" enable-background="new 0 0 22 24" xml:space="preserve">
<g>
	<path fill="#FCDA00" d="M22,11.073c0,0.396-0.316,0.719-0.706,0.719c-0.388,0-0.705-0.322-0.705-0.719V6.23
		c0-2.325-1.014-3.799-2.31-4.43c-0.499-0.243-1.038-0.364-1.574-0.364v0.003c-0.539,0-1.078,0.12-1.572,0.361
		c-1.295,0.631-2.309,2.103-2.309,4.43v4.843c0,0.396-0.315,0.719-0.705,0.719c-0.389,0-0.705-0.322-0.705-0.719V6.23
		c0-2.965,1.365-4.878,3.112-5.728C15.215,0.167,15.96,0,16.705,0v0.003c0.75,0,1.496,0.167,2.181,0.5
		C20.634,1.352,22,3.267,22,6.23V11.073z"/>
	<path fill="#FCDA00" d="M0.705,10.5h13.711c0.389,0,0.705,0.322,0.705,0.719v11.123c0,0.457-0.183,0.871-0.477,1.172
		C14.35,23.814,13.941,24,13.494,24H1.627c-0.447,0-0.852-0.186-1.147-0.486l-0.001-0.002l-0.001,0.002
		C0.183,23.215,0,22.799,0,22.342V11.219C0,10.823,0.316,10.5,0.705,10.5 M13.711,11.939H1.41v10.402
		c0,0.061,0.024,0.115,0.064,0.155l-0.001,0.001c0.04,0.04,0.094,0.063,0.154,0.063h11.867c0.059,0,0.113-0.024,0.152-0.064
		c0.039-0.041,0.064-0.095,0.064-0.155V11.939z"/>
</g>
<rect fill="none" width="22" height="23.693"/>
<rect fill="none" width="22" height="24"/>
</svg>
